<svg width="32" height="34" viewBox="0 0 32 34" fill="none" xmlns="http://www.w3.org/2000/svg">
<path fill-rule="evenodd" clip-rule="evenodd" d="M27.6631 4.51261C24.9627 1.60258 21.2067 0 17.0871 0H15.9691C7.67311 0 0.893629 6.60052 0.594249 14.8265C0.592886 14.8377 0.590202 14.8485 0.58752 14.8593L0.58752 14.8593C0.583707 14.8747 0.579899 14.89 0.579899 14.9064V15.3929V22.2371V22.3717C0.579899 22.379 0.581906 22.3859 0.583917 22.3928C0.585657 22.3988 0.587399 22.4047 0.587849 22.411C0.629539 26.0975 1.98276 29.6425 4.42143 32.4089C4.55192 32.5574 4.73865 32.6388 4.93041 32.6388C4.99013 32.6388 5.05005 32.6309 5.10938 32.615L29.8488 25.8562C30.0793 25.7932 30.2596 25.6131 30.3236 25.3829C30.6013 24.3828 30.7808 23.3542 30.8578 22.3263L31.3761 15.4039C31.684 11.2925 30.3651 7.42459 27.6631 4.51261ZM1.93739 15.4809L16.073 13.1202C17.2232 12.9286 18.1384 13.1401 18.5823 13.7013C19.0257 14.2626 19.0203 15.2011 18.5677 16.2761L16.3549 21.5296L1.93739 21.6855V15.4809ZM29.5046 22.2257L30.0229 15.3033C30.3019 11.5721 29.1106 8.06756 26.6684 5.43577C24.2274 2.80611 20.8249 1.35729 17.0871 1.35729H15.9691C8.67014 1.35729 2.66102 6.96194 2.00292 14.0939L15.8496 11.7817C17.5271 11.5021 18.8764 11.8845 19.6472 12.86C20.4179 13.8355 20.4786 15.2358 19.8182 16.8033L17.4326 22.4671C17.3279 22.7162 17.085 22.8799 16.8147 22.8826L1.97229 23.0426C2.14389 26.03 3.2528 28.8857 5.16639 31.192L29.1135 24.65C29.3124 23.8527 29.4437 23.0389 29.5046 22.2257Z" fill="black"/>
<path fill-rule="evenodd" clip-rule="evenodd" d="M21.6179 17.6448C21.6179 16.1477 22.8356 14.9302 24.3325 14.9302C25.8292 14.9302 27.0471 16.1477 27.0471 17.6448C27.0471 19.1419 25.8294 20.3594 24.3325 20.3594C22.8356 20.3594 21.6179 19.1419 21.6179 17.6448ZM22.9752 17.6448C22.9752 18.393 23.5841 19.0021 24.3325 19.0021C25.081 19.0021 25.6898 18.393 25.6898 17.6448C25.6898 16.8965 25.0812 16.2875 24.3325 16.2875C23.5839 16.2875 22.9752 16.8965 22.9752 17.6448Z" fill="black"/>
<path d="M17.3473 14.4505C17.0823 14.1855 16.6528 14.1855 16.3877 14.4505L14.3518 16.4865C14.0867 16.7515 14.0867 17.181 14.3518 17.4461C14.4842 17.5785 14.6577 17.6448 14.8315 17.6448C15.0052 17.6448 15.1787 17.5785 15.3114 17.4461L17.3473 15.4101C17.6124 15.1451 17.6124 14.7156 17.3473 14.4505Z" fill="black"/>
<path d="M28.7825 26.7761L7.20988 32.6666C6.84807 32.7653 6.63497 33.1385 6.73367 33.5003C6.81627 33.8018 7.08947 34 7.38808 34C7.44702 34 7.50732 33.9921 7.56704 33.9762L29.1397 28.0857C29.5015 27.987 29.7146 27.6137 29.6159 27.2519C29.5168 26.8907 29.1424 26.678 28.7825 26.7761Z" fill="black"/>
</svg>
