<svg width="34" height="32" viewBox="0 0 34 32" fill="none" xmlns="http://www.w3.org/2000/svg">
<path d="M33.6384 12.8168L17.5219 1.01658C17.2111 0.78907 16.7889 0.78907 16.4783 1.01658L0.36159 12.8168C-0.0320662 13.105 -0.117598 13.6578 0.170672 14.0515C0.458942 14.4451 1.01177 14.5305 1.40536 14.2424L17 2.82422L32.5947 14.2423C32.7519 14.3575 32.9347 14.413 33.1158 14.413C33.3878 14.413 33.6562 14.2878 33.8293 14.0514C34.1176 13.6578 34.0321 13.105 33.6384 12.8168Z" fill="white"/>
<path d="M29.3679 14.4423C28.8801 14.4423 28.4845 14.8378 28.4845 15.3257V29.3871H21.4174V21.7115C21.4174 19.2757 19.4357 17.2942 17.0001 17.2942C14.5644 17.2942 12.5827 19.2759 12.5827 21.7115V29.3872H5.51558V15.3258C5.51558 14.8379 5.12 14.4424 4.63218 14.4424C4.14436 14.4424 3.74878 14.8379 3.74878 15.3258V30.2707C3.74878 30.7586 4.14436 31.1541 4.63218 31.1541H13.4661C13.9307 31.1541 14.3109 30.7952 14.3461 30.3395C14.3482 30.3188 14.3495 30.2963 14.3495 30.2707V21.7116C14.3495 20.25 15.5385 19.061 17.0001 19.061C18.4616 19.061 19.6506 20.2501 19.6506 21.7116V30.2707C19.6506 30.2961 19.6519 30.3183 19.6541 30.3387C19.6889 30.7947 20.0692 31.1541 20.534 31.1541H29.368C29.8559 31.1541 30.2514 30.7586 30.2514 30.2707V15.3258C30.2513 14.8378 29.8558 14.4423 29.3679 14.4423Z" fill="white"/>
</svg>
